#!OML:ASF G:\JayActor3\Patient Classification 1\Patient 1\Session 6\male.ASF
:FULLY-SPECIFIED
:DEGREES
3409
root -0.867706 16.4499 -4.0108 -0.984017 -62.8962 -2.58658
lowerback 3.3384 2.95379 8.91017
upperback -2.27973 4.40201 0.626508
thorax -3.63901 1.95225 -4.58689
lowerneck 7.82223 16.6677 7.78261
upperneck -0.572076 22.8203 -2.4959
head -0.261057 11.4348 -2.33726
rclavicle -4.08502e-014 -4.77083e-015
rhumerus -46.5032 -0.530578 -74.5176
rradius 40.2618
rwrist 5.39792
rhand -12.0331 -1.95883
rfingers 7.12502
rthumb 14.0251 -31.4657
lclavicle -4.08502e-014 -4.77083e-015
lhumerus -39.8341 -24.1467 87.2081
lradius 37.9977
lwrist 19.0241
lhand 9.40587 5.87149
lfingers 7.12502
lthumb 34.5626 32.5286
rfemur 3.00266 -5.72583 20.4907
rtibia 28.3396
rfoot -43.3833 -28.7854
rtoes 12.3746
lfemur -4.92338 3.64936 -9.81584
ltibia 15.5339
lfoot -5.6456 2.75953
ltoes -5.41289
3410
root -0.865683 16.4501 -4.01185 -0.958719 -63.0204 -2.60207
lowerback 3.35558 2.96989 8.88862
upperback -2.28638 4.42408 0.602732
thorax -3.65217 1.9628 -4.60202
lowerneck 7.82885 16.6792 7.7742
upperneck -0.617701 22.8356 -2.50696
head -0.275617 11.4416 -2.34282
rclavicle 2.27111e-014 1.82882e-014
rhumerus -46.4752 -0.512017 -74.539
rradius 40.2558
rwrist 5.39724
rhand -12.0346 -1.9505
rfingers 7.12502
rthumb 14.0236 -31.4574
lclavicle 2.27111e-014 1.82882e-014
lhumerus -39.8664 -24.0855 87.1757
lradius 37.9244
lwrist 19.0199
lhand 9.41031 5.87537
lfingers 7.12502
lthumb 34.5668 32.5315
rfemur 2.93477 -5.69803 20.4795
rtibia 28.3979
rfoot -43.2801 -28.7618
rtoes 12.3227
lfemur -4.90083 3.66717 -9.80606
ltibia 15.5253
lfoot -5.65886 2.87281
ltoes -5.49501
3411
root -0.863298 16.4503 -4.01232 -0.947864 -63.1591 -2.60175
lowerback 3.38399 2.99089 8.87598
upperback -2.30187 4.4545 0.56601
thorax -3.67821 1.97625 -4.637
lowerneck 7.85712 16.6819 7.78691
upperneck -0.666625 22.8424 -2.5207
head -0.292529 11.4442 -2.35437
rclavicle -1.82882e-014 2.74323e-014
rhumerus -46.4687 -0.511134 -74.5678
rradius 40.2623
rwrist 5.39395
rhand -12.0397 -1.93863
rfingers 7.12502
rthumb 14.0187 -31.4459
lclavicle -1.82882e-014 2.74323e-014
lhumerus -39.9192 -24.0481 87.1483
lradius 37.8565
lwrist 19.0131
lhand 9.41614 5.88223
lfingers 7.12502
lthumb 34.5724 32.5371
rfemur 2.86242 -5.66523 20.4568
rtibia 28.4619
rfoot -43.1635 -28.745
rtoes 12.2462
lfemur -4.86902 3.67771 -9.80653
ltibia 15.5109
lfoot -5.67721 3.00621
ltoes -5.55628
3412
root -0.860662 16.4505 -4.0125 -0.940612 -63.3149 -2.59567
lowerback 3.42048 3.01761 8.87078
upperback -2.32632 4.49396 0.519449
thorax -3.71564 1.99306 -4.68765
lowerneck 7.91105 16.6756 7.82036
upperneck -0.723672 22.8409 -2.53832
head -0.313909 11.4425 -2.37294
rclavicle 1.65985e-014 1.19271e-014
rhumerus -46.4844 -0.526595 -74.6038
rradius 40.2826
rwrist 5.38778
rhand -12.0674 -1.92879
rfingers 7.12502
rthumb 13.9921 -31.4379
lclavicle 1.65985e-014 1.19271e-014
lhumerus -39.9894 -24.0308 87.1248
lradius 37.7906
lwrist 19.0012
lhand 9.4255 5.89383
lfingers 7.12502
lthumb 34.5812 32.5467
rfemur 2.78209 -5.61542 20.4324
rtibia 28.5327
rfoot -43.0459 -28.7351
rtoes 12.1531
lfemur -4.83162 3.67929 -9.81077
ltibia 15.4947
lfoot -5.70243 3.16129
ltoes -5.60167
3413
root -0.858251 16.4508 -4.01281 -0.923483 -63.4911 -2.5988
lowerback 3.46267 3.04604 8.86759
upperback -2.35381 4.53651 0.471755
thorax -3.75881 2.01094 -4.74129
lowerneck 7.96701 16.6677 7.85516
upperneck -0.780467 22.8377 -2.55325
head -0.335835 11.4399 -2.39116
rclavicle -4.54223e-014 -1.15295e-014
rhumerus -46.5063 -0.549193 -74.645
rradius 40.3147
rwrist 5.38595
rhand -12.1225 -1.91841
rfingers 7.12502
rthumb 13.9389 -31.4312
lclavicle -4.54223e-014 -1.15295e-014
lhumerus -40.0633 -24.0123 87.0989
lradius 37.7217
lwrist 18.9826
lhand 9.43023 5.89854
lfingers 7.12502
lthumb 34.5857 32.5503
rfemur 2.69386 -5.53437 20.4203
rtibia 28.6098
rfoot -42.9443 -28.7293
rtoes 12.0693
lfemur -4.79108 3.67246 -9.8089
ltibia 15.4824
lfoot -5.73749 3.33977
ltoes -5.62798
3414
root -0.857241 16.4505 -4.01205 -0.906891 -63.7288 -2.61681
lowerback 3.50234 3.08784 8.86734
upperback -2.37107 4.59627 0.429091
thorax -3.7874 2.03833 -4.79152
lowerneck 8.02219 16.6598 7.88984
upperneck -0.835688 22.8343 -2.57225
head -0.356666 11.4373 -2.41036
rclavicle 1.1783e-013 5.1684e-015
rhumerus -46.5258 -0.565401 -74.6907
rradius 40.3549
rwrist 5.38537
rhand -12.2096 -1.91026
rfingers 7.12502
rthumb 13.855 -31.4288
lclavicle 1.1783e-013 5.1684e-015
lhumerus -40.1385 -23.9905 87.0747
lradius 37.6528
lwrist 18.9638
lhand 9.43622 5.90227
lfingers 7.12502
lthumb 34.5914 32.5528
rfemur 2.6161 -5.3995 20.4149
rtibia 28.6923
rfoot -42.8397 -28.7212
rtoes 11.9801
lfemur -4.71627 3.66758 -9.79804
ltibia 15.4799
lfoot -5.79968 3.56708
ltoes -5.6537
3415
root -0.85738 16.4497 -4.01058 -0.885784 -64.0102 -2.64958
lowerback 3.54043 3.13679 8.87068
upperback -2.38341 4.66534 0.389165
thorax -3.80845 2.07079 -4.84103
lowerneck 8.08018 16.6513 7.92532
upperneck -0.888885 22.8303 -2.59276
head -0.37707 11.4346 -2.43029
rclavicle 1.49089e-014 1.43125e-014
rhumerus -46.5469 -0.57748 -74.743
rradius 40.4029
rwrist 5.38562
rhand -12.2815 -1.90532
rfingers 7.12502
rthumb 13.7857 -31.4286
lclavicle 1.49089e-014 1.43125e-014
lhumerus -40.2193 -23.9656 87.05
lradius 37.584
lwrist 18.9441
lhand 9.43993 5.89422
lfingers 7.12502
lthumb 34.5949 32.5439
rfemur 2.54489 -5.22681 20.4169
rtibia 28.7796
rfoot -42.7364 -28.7059
rtoes 11.8974
lfemur -4.62172 3.67432 -9.77823
ltibia 15.4894
lfoot -5.88118 3.81794
ltoes -5.67415
3416
root -0.858591 16.4485 -4.00828 -0.862612 -64.3261 -2.69338
lowerback 3.56814 3.18677 8.86911
upperback -2.38353 4.734 0.358564
thorax -3.81179 2.10452 -4.87688
lowerneck 8.12474 16.6481 7.94884
upperneck -0.936997 22.8313 -2.6177
head -0.394168 11.4345 -2.44819
rclavicle 5.89894e-014 3.57812e-015
rhumerus -46.5512 -0.568506 -74.7994
rradius 40.4559
rwrist 5.38142
rhand -12.3348 -1.90606
rfingers 7.12502
rthumb 13.7344 -31.4328
lclavicle 5.89894e-014 3.57812e-015
lhumerus -40.2909 -23.9216 87.0245
lradius 37.5107
lwrist 18.9245
lhand 9.43933 5.88112
lfingers 7.12502
lthumb 34.5944 32.5309
rfemur 2.47984 -5.03083 20.4204
rtibia 28.8716
rfoot -42.6207 -28.6909
rtoes 11.798
lfemur -4.50833 3.69777 -9.75231
ltibia 15.507
lfoot -5.97582 4.08069
ltoes -5.71083
3417
root -0.859905 16.4473 -4.0055 -0.83879 -64.6534 -2.73467
lowerback 3.58772 3.23357 8.86492
upperback -2.3808 4.79728 0.329223
thorax -3.80854 2.13609 -4.90906
lowerneck 8.16817 16.6457 7.9714
upperneck -0.984888 22.8332 -2.64873
head -0.410326 11.4351 -2.46756
rclavicle 6.90777e-015 -1.55052e-014
rhumerus -46.5473 -0.549263 -74.8608
rradius 40.5131
rwrist 5.37209
rhand -12.3604 -1.91069
rfingers 7.12502
rthumb 13.7097 -31.4391
lclavicle 6.90777e-015 -1.55052e-014
lhumerus -40.3592 -23.8715 86.9995
lradius 37.4358
lwrist 18.9025
lhand 9.43685 5.86428
lfingers 7.12502
lthumb 34.592 32.5146
rfemur 2.41017 -4.83907 20.417
rtibia 28.9656
rfoot -42.4865 -28.6763
rtoes 11.6775
lfemur -4.39352 3.73617 -9.72908
ltibia 15.5246
lfoot -6.07225 4.34061
ltoes -5.74774
3418
root -0.860418 16.4465 -4.00271 -0.827134 -64.9633 -2.75176
lowerback 3.60066 3.26754 8.84767
upperback -2.37793 4.84206 0.299654
thorax -3.80498 2.15887 -4.93302
lowerneck 8.20882 16.6461 7.98764
upperneck -1.03416 22.8379 -2.68483
head -0.426408 11.4372 -2.48738
rclavicle 3.4191e-014 1.82882e-014
rhumerus -46.5294 -0.517234 -74.925
rradius 40.5736
rwrist 5.35219
rhand -12.3791 -1.91398
rfingers 7.12502
rthumb 13.6916 -31.4436
lclavicle 3.4191e-014 1.82882e-014
lhumerus -40.4183 -23.8106 86.9738
lradius 37.3559
lwrist 18.8781
lhand 9.43755 5.84548
lfingers 7.12502
lthumb 34.5927 32.4957
rfemur 2.33004 -4.6737 20.3975
rtibia 29.0593
rfoot -42.3383 -28.6631
rtoes 11.5475
lfemur -4.29098 3.78258 -9.7196
ltibia 15.5331
lfoot -6.15621 4.57853
ltoes -5.7891
3419
root -0.859959 16.4463 -4.00074 -0.800886 -65.2427 -2.76901
lowerback 3.6139 3.2843 8.82446
upperback -2.37788 4.86382 0.271351
thorax -3.80849 2.16996 -4.95156
lowerneck 8.23277 16.6511 7.98903
upperneck -1.08153 22.8461 -2.71743
head -0.441043 11.4411 -2.50244
rclavicle 2.73329e-014 2.50469e-014
rhumerus -46.4969 -0.478296 -74.9928
rradius 40.6407
rwrist 5.3238
rhand -12.3972 -1.91467
rfingers 7.12502
rthumb 13.6742 -31.4455
lclavicle 2.73329e-014 2.50469e-014
lhumerus -40.4705 -23.7483 86.9467
lradius 37.2807
lwrist 18.8555
lhand 9.44273 5.83114
lfingers 7.12502
lthumb 34.5976 32.4802
rfemur 2.23533 -4.53231 20.381
rtibia 29.1488
rfoot -42.1946 -28.6528
rtoes 11.4244
lfemur -4.20887 3.8331 -9.71017
ltibia 15.5252
lfoot -6.21998 4.78737
ltoes -5.82486
